<svg id="Layer_1" data-name="Layer 1" xmlns="http://www.w3.org/2000/svg" xmlns:xlink="http://www.w3.org/1999/xlink" viewBox="0 0 1139.51 1273.26"><defs><style>.cls-1{fill:url(#radial-gradient);}.cls-2{fill:url(#linear-gradient);}.cls-3{clip-path:url(#clip-path);}.cls-4{fill:url(#radial-gradient-3);}.cls-5{fill:#0dbdd5;}.cls-6{clip-path:url(#clip-path-2);}.cls-7{opacity:0.54;fill:url(#linear-gradient-3);}.cls-8{fill:url(#radial-gradient-4);}</style><radialGradient id="radial-gradient" cx="581.17" cy="224.57" r="379.55" gradientUnits="userSpaceOnUse"><stop offset="0" stop-color="#0dc3d7"/><stop offset="0.55" stop-color="#0dc1d6"/><stop offset="0.75" stop-color="#0dbad3"/><stop offset="0.89" stop-color="#0dafce"/><stop offset="1" stop-color="#0d9fc8"/></radialGradient><linearGradient id="linear-gradient" x1="6.1" y1="902.53" x2="500.71" y2="902.53" gradientUnits="userSpaceOnUse"><stop offset="0" stop-color="#0c7cba"/><stop offset="0.56" stop-color="#0c7ebb"/><stop offset="0.76" stop-color="#0c85bd"/><stop offset="0.9" stop-color="#0d90c2"/><stop offset="1" stop-color="#0d9fc8"/></linearGradient><clipPath id="clip-path" transform="translate(0.67 74.27)"><path class="cls-1" d="M723.65,11.67,298.37,139.07,236.54,341.41,88.43,377a4339.6,4339.6,0,0,0,498.44,54.72,4336.47,4336.47,0,0,0,487-2.26L828.57,317.05Z"/></clipPath><radialGradient id="radial-gradient-3" cx="772.34" cy="39.78" fx="762.6660728771553" fy="28.96401149940653" r="462.87" gradientTransform="translate(186.52 -116.89) rotate(20.14) scale(1 1.24)" gradientUnits="userSpaceOnUse"><stop offset="0" stop-color="#0de7e5"/><stop offset="0.38" stop-color="#0de4e4"/><stop offset="0.71" stop-color="#0fd9e1"/><stop offset="0.9" stop-color="#10cfdf"/></radialGradient><clipPath id="clip-path-2" transform="translate(0.67 74.27)"><polygon class="cls-2" points="338.87 784.7 6.1 736.72 500.71 1068.33 338.87 784.7"/></clipPath><linearGradient id="linear-gradient-3" x1="318.39" y1="839.37" x2="549.01" y2="839.37" gradientTransform="matrix(4.03, 0.76, -2.33, 1.32, 462.11, -543.45)" gradientUnits="userSpaceOnUse"><stop offset="0" stop-color="#0a1420" stop-opacity="0"/><stop offset="0.46" stop-color="#0a1420" stop-opacity="0.09"/><stop offset="0.75" stop-color="#08121e" stop-opacity="0.41"/><stop offset="0.98" stop-color="#050f1b" stop-opacity="0.94"/><stop offset="1" stop-color="#050f1b"/></linearGradient><radialGradient id="radial-gradient-4" cx="610.31" cy="604.64" r="307.67" gradientTransform="matrix(0.95, -0.33, 0.44, 1.29, -235.82, 21.74)" gradientUnits="userSpaceOnUse"><stop offset="0.09" stop-color="#0dc2d6"/><stop offset="0.32" stop-color="#0dbcd4"/><stop offset="0.63" stop-color="#0dabcd"/><stop offset="0.8" stop-color="#0d9fc8"/></radialGradient></defs><title>SHERPASEC LOGO</title><path class="cls-1" d="M723.65,11.67,298.37,139.07,236.54,341.41,88.43,377a4339.6,4339.6,0,0,0,498.44,54.72,4336.47,4336.47,0,0,0,487-2.26L828.57,317.05Z" transform="translate(0.67 74.27)"/><g class="cls-3"><ellipse class="cls-4" cx="718.01" cy="208.4" rx="246.37" ry="442.96" transform="translate(255.4 869.47) rotate(-67.89)"/></g><polygon class="cls-5" points="634.4 583.47 769.29 655.41 761.8 592.84 634.4 583.47"/><polygon class="cls-2" points="339.55 858.97 6.77 810.99 501.38 1142.6 339.55 858.97"/><g class="cls-6"><rect class="cls-7" x="116.01" y="622.47" width="282.14" height="542.32" transform="translate(-411.7 322.53) rotate(-30)"/></g><path class="cls-8" d="M163.47,485.67,669.32,624.31,560.66,852.88,701.17,718c23-3.26,49.53-3.55,60,11.25,21.9,31.07-47.52,100-26.23,131.14,7.14,10.44,25.73,18.41,74.94,9.37l-311,198.59Z" transform="translate(0.67 74.27)"/></svg>